<svg xmlns="http://www.w3.org/2000/svg" width="32" height="32" viewBox="0 0 32 32">
    <g fill="none" fill-rule="evenodd">
        <g>
            <g transform="translate(-24 -16) translate(24 16)">
                <circle cx="16" cy="16" r="16" fill="#297EF1" fill-rule="nonzero"/>
                <path fill="#FFF" d="M19.314 17.561c-.16.25-.514.324-.759.16-.02-.012-.041-.026-.06-.04-.712.558-1.589.862-2.5.862-.909 0-1.783-.303-2.494-.86-.018.014-.037.027-.056.039-.251.164-.6.086-.759-.159-.16-.247-.09-.582.156-.748.214-.14.229-.421.229-.424.005-.147.069-.287.176-.385.106-.1.239-.156.386-.145.294.007.534.255.528.553 0 .004 0 .153-.054.36 1.098.911 2.69.908 3.784-.008-.04-.159-.05-.285-.053-.344-.003-.153.052-.291.154-.397.101-.103.237-.162.382-.164h.01c.294 0 .538.237.545.532 0 0 .015.282.227.422.247.163.318.497.158.746m2.322-6.369c-.157-1.328-.745-2.556-1.69-3.506C18.863 6.598 17.431 6 15.916 6c-1.515 0-2.945.598-4.029 1.687-.948.953-1.538 2.188-1.691 3.524-1.301.158-2.504.763-3.433 1.737-1.06 1.111-1.643 2.58-1.643 4.137C5.12 20.347 7.704 23 10.882 23h10.236c3.176 0 5.762-2.653 5.762-5.915 0-3.083-2.31-5.623-5.244-5.893"/>
            </g>
        </g>
    </g>
</svg>
