<svg width="102" height="102" viewBox="0 0 102 102" fill="none" xmlns="http://www.w3.org/2000/svg">
<rect width="101.617" height="101.617" rx="50.8086" fill="#F6FAFF"/>
<g clip-path="url(#clip0_2971_74936)">
<path d="M74.125 81H57.875C57.3777 81 56.9008 80.8025 56.5492 80.4508C56.1975 80.0992 56 79.6223 56 79.125V68.4725H53.4725C52.9831 68.4715 52.5051 68.3254 52.0987 68.0528C51.6923 67.7801 51.3759 67.3931 51.1894 66.9407C51.0029 66.4882 50.9548 65.9907 51.051 65.5109C51.1472 65.0311 51.3835 64.5906 51.73 64.245L64.69 51.5375C65.0399 51.1928 65.5113 50.9995 66.0025 50.9995C66.4937 50.9995 66.9651 51.1928 67.315 51.5375L80.26 64.2325C80.6102 64.5768 80.8501 65.0175 80.9491 65.4985C81.0481 65.9795 81.0018 66.4791 80.8161 66.9337C80.6303 67.3883 80.3135 67.7774 79.906 68.0514C79.4984 68.3254 79.0186 68.472 78.5275 68.4725H76V79.125C76 79.6223 75.8025 80.0992 75.4508 80.4508C75.0992 80.8025 74.6223 81 74.125 81ZM59.75 77.25H72.25V66.5975C72.25 66.1002 72.4475 65.6233 72.7992 65.2717C73.1508 64.92 73.6277 64.7225 74.125 64.7225H75.405L66 55.5025L56.595 64.7225H57.875C58.3723 64.7225 58.8492 64.92 59.2008 65.2717C59.5525 65.6233 59.75 66.1002 59.75 66.5975V77.25ZM44.125 71H26.625C25.1338 70.998 23.7042 70.4047 22.6497 69.3503C21.5953 68.2958 21.002 66.8662 21 65.375V44.125C21 41.025 23.5225 38.5 26.625 38.5H55.375C58.4775 38.5 61 41.025 61 44.125V46.625C61 47.1223 60.8025 47.5992 60.4508 47.9508C60.0992 48.3025 59.6223 48.5 59.125 48.5C58.6277 48.5 58.1508 48.3025 57.7992 47.9508C57.4475 47.5992 57.25 47.1223 57.25 46.625V44.125C57.25 43.6277 57.0525 43.1508 56.7008 42.7992C56.3492 42.4475 55.8723 42.25 55.375 42.25H26.625C26.1277 42.25 25.6508 42.4475 25.2992 42.7992C24.9475 43.1508 24.75 43.6277 24.75 44.125V65.375C24.75 66.4075 25.59 67.25 26.625 67.25H44.125C44.6223 67.25 45.0992 67.4475 45.4508 67.7992C45.8025 68.1508 46 68.6277 46 69.125C46 69.6223 45.8025 70.0992 45.4508 70.4508C45.0992 70.8025 44.6223 71 44.125 71Z" fill="#CFDDEE"/>
<path d="M51.625 42.25C51.1277 42.25 50.6508 42.0525 50.2992 41.7008C49.9475 41.3492 49.75 40.8723 49.75 40.375V33.5C49.75 28.675 45.825 24.75 41 24.75C36.175 24.75 32.25 28.675 32.25 33.5V40.375C32.25 40.8723 32.0525 41.3492 31.7008 41.7008C31.3492 42.0525 30.8723 42.25 30.375 42.25C29.8777 42.25 29.4008 42.0525 29.0492 41.7008C28.6975 41.3492 28.5 40.8723 28.5 40.375V33.5C28.5 26.6075 34.1075 21 41 21C47.8925 21 53.5 26.6075 53.5 33.5V40.375C53.5 40.8723 53.3025 41.3492 52.9508 41.7008C52.5992 42.0525 52.1223 42.25 51.625 42.25Z" fill="#CFDDEE"/>
</g>
<g clip-path="url(#clip1_2971_74936)">
<path d="M74.125 81.0005H57.875C57.3777 81.0005 56.9008 80.803 56.5492 80.4513C56.1975 80.0997 56 79.6228 56 79.1255V68.473H53.4725C52.9831 68.472 52.5051 68.3259 52.0987 68.0533C51.6923 67.7806 51.3759 67.3936 51.1894 66.9412C51.0029 66.4887 50.9548 65.9912 51.051 65.5114C51.1472 65.0316 51.3835 64.591 51.73 64.2455L64.69 51.538C65.0399 51.1933 65.5113 51 66.0025 51C66.4937 51 66.9651 51.1933 67.315 51.538L80.26 64.233C80.6102 64.5773 80.8501 65.0179 80.9491 65.499C81.0481 65.98 81.0018 66.4796 80.8161 66.9342C80.6303 67.3888 80.3135 67.7778 79.906 68.0519C79.4984 68.3259 79.0186 68.4725 78.5275 68.473H76V79.1255C76 79.6228 75.8025 80.0997 75.4508 80.4513C75.0992 80.803 74.6223 81.0005 74.125 81.0005ZM59.75 77.2505H72.25V66.598C72.25 66.1007 72.4475 65.6238 72.7992 65.2722C73.1508 64.9205 73.6277 64.723 74.125 64.723H75.405L66 55.503L56.595 64.723H57.875C58.3723 64.723 58.8492 64.9205 59.2008 65.2722C59.5525 65.6238 59.75 66.1007 59.75 66.598V77.2505Z" fill="#0A84FF"/>
<path d="M51.625 42.25C51.1277 42.25 50.6508 42.0525 50.2992 41.7008C49.9475 41.3492 49.75 40.8723 49.75 40.375V33.5C49.75 28.675 45.825 24.75 41 24.75C36.175 24.75 32.25 28.675 32.25 33.5V40.375C32.25 40.8723 32.0525 41.3492 31.7008 41.7008C31.3492 42.0525 30.8723 42.25 30.375 42.25C29.8777 42.25 29.4008 42.0525 29.0492 41.7008C28.6975 41.3492 28.5 40.8723 28.5 40.375V33.5C28.5 26.6075 34.1075 21 41 21C47.8925 21 53.5 26.6075 53.5 33.5V40.375C53.5 40.8723 53.3025 41.3492 52.9508 41.7008C52.5992 42.0525 52.1223 42.25 51.625 42.25Z" fill="#CFDDEE"/>
</g>
<defs>
<clipPath id="clip0_2971_74936">
<rect width="60" height="60" fill="white" transform="translate(21 21)"/>
</clipPath>
<clipPath id="clip1_2971_74936">
<rect width="60" height="60" fill="white" transform="translate(21 21)"/>
</clipPath>
</defs>
</svg>
