<svg xmlns="http://www.w3.org/2000/svg" xmlns:xlink="http://www.w3.org/1999/xlink" width="164" height="96" viewBox="0 0 164 96">
    <defs>
        <path id="y06ubtuf4a" d="M0.115 0.005L46.612 0.005 46.612 36.639 0.115 36.639z"/>
        <path id="1xg1kc831c" d="M0 0.054L57.449 0.054 57.449 81.001 0 81.001z"/>
        <path id="h5en4inzse" d="M0.088 0.192L46.005 0.192 46.005 39.062 0.088 39.062z"/>
        <path id="jn5ois091g" d="M0 0.113L31.786 0.113 31.786 24.552 0 24.552z"/>
    </defs>
    <g fill="none" fill-rule="evenodd">
        <g>
            <g>
                <g>
                    <path fill="#32363F" d="M103.95 71.958c-3.84 0-6.952 3.113-6.952 6.952s3.112 6.952 6.951 6.952c3.84 0 6.952-3.113 6.952-6.952 0-3.84-3.113-6.952-6.952-6.952m0-7.062c7.74 0 14.014 6.274 14.014 14.014 0 7.74-6.274 14.014-14.014 14.014-7.74 0-14.014-6.275-14.014-14.014 0-7.74 6.275-14.014 14.014-14.014" transform="translate(-558 -172) translate(384 172) translate(174)"/>
                    <path fill="#32363F" d="M103.945 64.883H108.579V92.911H103.945z" transform="translate(-558 -172) translate(384 172) translate(174)"/>
                    <path fill="#6B6B6B" d="M108.584 71.958c-3.84 0-6.952 3.113-6.952 6.952s3.113 6.952 6.952 6.952 6.951-3.113 6.951-6.952c0-3.84-3.112-6.952-6.951-6.952m0-7.062c7.74 0 14.014 6.274 14.014 14.014 0 7.74-6.275 14.014-14.014 14.014-7.74 0-14.014-6.275-14.014-14.014 0-7.74 6.274-14.014 14.014-14.014" transform="translate(-558 -172) translate(384 172) translate(174)"/>
                    <path fill="#BBD9FD" d="M108.584 71.958c-3.84 0-6.952 3.113-6.952 6.952s3.113 6.952 6.952 6.952 6.951-3.113 6.951-6.952c0-3.84-3.112-6.952-6.951-6.952" transform="translate(-558 -172) translate(384 172) translate(174)"/>
                    <path fill="#32363F" d="M28.253 64.896c7.74 0 14.013 6.274 14.013 14.014 0 7.74-6.274 14.014-14.013 14.014-7.74 0-14.014-6.275-14.014-14.014 0-7.74 6.274-14.014 14.014-14.014" transform="translate(-558 -172) translate(384 172) translate(174)"/>
                    <path fill="#BBD9FD" d="M5.846 93.811c6.403.815 22.83 1.522 36.075 1.805 36.15.772 86.671.36 108.081-1.055 21.575-1.425 22.539-3.586-32.317-4.66-46.699-.917-101.21.378-112.864 2.31-3.129.518-2.956 1.094 1.025 1.6" transform="translate(-558 -172) translate(384 172) translate(174)"/>
                    <path fill="#6B6B6B" d="M33.99 64.896c7.74 0 14.014 6.274 14.014 14.014 0 7.74-6.274 14.014-14.013 14.014-7.74 0-14.014-6.275-14.014-14.014 0-7.74 6.274-14.014 14.014-14.014" transform="translate(-558 -172) translate(384 172) translate(174)"/>
                    <g transform="translate(-558 -172) translate(384 172) translate(174) translate(116.966 42.822)">
                        <mask id="q52m32h6xb" fill="#fff">
                            <use xlink:href="#y06ubtuf4a"/>
                        </mask>
                        <path fill="#FFB15C" d="M37.963 36.64H.115V.004h37.848c3.876 0 7.621 3.137 8.05 7.036.798 7.5.798 15.063 0 22.563-.429 3.899-4.174 7.035-8.05 7.035" mask="url(#q52m32h6xb)"/>
                    </g>
                    <path fill="#FFB15C" d="M84.705 79.462v-60.8h45.372c2.868.002 5.98 1.699 7.779 4.323 4.383 6.462 8.382 13.072 11.707 19.744l5.271.232c4.098.173-.6 3.338-.66 7.176-.095 7.557-1.193 15.104-3.293 22.43-1.06 3.854 2.08 6.895-1.825 6.895h-64.35 33.698" transform="translate(-558 -172) translate(384 172) translate(174)"/>
                    <path fill="#ED994C" d="M124.469 18.648c1.778 18.811.984 37.89-.552 56.718-.152 1.443-1.024 2.713-2.207 3.45-.684.425-1.473.673-2.287.673l-7.202-.04c-1.908-20.186 4.275-40.492 6.183-60.677l6.065-.124z" transform="translate(-558 -172) translate(384 172) translate(174)"/>
                    <path fill="#3281EE" d="M127.658 23.43c2.583-.004 5.267 1.505 6.713 3.832 3.151 5.1 6.075 10.271 8.631 15.477-7.256.01-16.022.064-23.278.075-.256-6.489.6-12.997-.451-19.367l8.385-.017z" transform="translate(-558 -172) translate(384 172) translate(174)"/>
                    <path fill="#7DB3FF" d="M47.064.082c21.426-.264 42.852.11 64.278 1.12 3.888.19 7.439 3.526 7.828 7.418 2.075 21.26 2.075 42.52 0 63.78-.39 3.892-3.94 7.227-7.828 7.418-21.426 1.01-42.852 1.383-64.278 1.12-.709-26.952-.709-53.904 0-80.856" transform="translate(-558 -172) translate(384 172) translate(174)"/>
                    <path fill="#3281EE" d="M79.672 49c7.007.1 14.015.267 21.022.501.325.011.652.142.917.368.595.506.726 1.344.286 1.874-.733.883-1.476 1.77-2.23 2.66l-1.138 1.34-.015-.222c.553 8.259.676 16.518.369 24.776-9.58.35-19.16.573-28.739.669.06-8.606.04-17.21-.059-25.814l.248.001c1.568-1.45 3.121-2.895 4.654-4.334 1.273-1.196 2.935-1.844 4.685-1.818z" opacity=".239" transform="translate(-558 -172) translate(384 172) translate(174)"/>
                    <g transform="translate(-558 -172) translate(384 172) translate(174) translate(0 .008)">
                        <mask id="av9iilomod" fill="#fff">
                            <use xlink:href="#1xg1kc831c"/>
                        </mask>
                        <path fill="#BBD9FD" d="M56.281 7.33c1.748 24.521 1.51 49.182-.552 73.671-15.449-.066-30.897-.463-46.345-1.192-3.88-.19-7.43-3.525-7.828-7.418-2.075-21.26-2.075-42.52 0-63.78.398-3.892 3.949-7.228 7.828-7.417C22.478.576 35.572.197 48.666.054c3.88-.043 7.319 3.226 7.615 7.276" mask="url(#av9iilomod)"/>
                    </g>
                    <path fill="#3281EE" d="M10.664 7.364c12.178-.463 24.355-.756 36.533-.88 1.492-.016 2.768 1.204 2.842 2.721 1.02 20.836 1.02 41.773 0 62.61-.074 1.517-1.35 2.737-2.842 2.722-12.178-.125-24.355-.419-36.533-.881-1.492-.058-2.8-1.301-2.91-2.774-1.476-20.239-1.476-40.506 0-60.744.11-1.473 1.418-2.716 2.91-2.774" transform="translate(-558 -172) translate(384 172) translate(174)"/>
                    <path fill="#C17C44" d="M59.701 27.6L26.487 46.8 59.701 66 92.915 46.8z" transform="translate(-558 -172) translate(384 172) translate(174)"/>
                    <path fill="#3281EE" d="M78.241 43.98c.882-1.996 1.858-3.956 2.91-5.864.726-1.467 1.5-2.911 2.347-4.31.484-.886 1.006-1.751 1.568-2.596.035-.165.011-.338-.066-.49-.062-.101-.151-.184-.258-.238l-.032-.038-.134-.056c-.061-.028-.12-.06-.178-.095-3.172-1.265-10.36-4.992-13.688-6.327-.168-.083-.353-.123-.54-.117-.334.017-.642.19-.832.466-.256.35-.477.726-.657 1.12-.018.036-.033.073-.044.112-2.856 5.565-5.694 11.107-8.512 16.624-.021.037-.038.077-.05.118-.074.138-.148.277-.21.416-.191.32-.33.67-.41 1.035-.033.115-.054.233-.061.353 0 .468.341.866.804.94 3.251 1.294 10.777 3.928 13.95 5.183.337.212.76.231 1.116.05.292-.171.538-.414.712-.706.645-1.902 1.402-3.765 2.265-5.58" transform="translate(-558 -172) translate(384 172) translate(174)"/>
                    <path fill="#FF8E8E" d="M72.008 47.489c.1-3.701-.001-13.572.091-17.198.034-.366.024-.786-.161-1.093-.26-.43-.698-.448-1.095-.484v-.001c-3.473-.535-6.71-.995-10.178-1.534-.027-.012-.053-.026-.081-.031-.17-.035-.342-.086-.508-.064-.225.01-.42.102-.52.34-.046.111-.067.233-.08.357-.002.018-.01.032-.01.053l-.005.153c-.004.072-.01.143-.015.214-.002.017.005.033.007.051-.107 3.569-.284 14.37-.39 18.177-.001.19-.015.386.034.576.05.258.166.482.395.603.225.12.47.114.705.151.025.004.045-.005.068-.01 3.414.35 6.829.697 10.243 1.042.027.003.047-.005.07-.009h.001c.086.014.172.026.257.031.222.031.436.029.617-.06.069-.02.136-.047.197-.089.286-.195.363-.714.358-1.175" transform="translate(-558 -172) translate(384 172) translate(174)"/>
                    <path fill="#F52D2D" d="M63.217 31.54c-1.217-.243-.427-.161-2.506-.341-.356-.03-.399 1.017-.038 1.067 2.177.303 1.288.098 2.505.342.358.071.397-.995.039-1.067M65.934 29.712c-1.675-.268-3.351-.542-5.027-.794-.36-.054-.407 1.012-.047 1.066 1.677.252 3.353.525 5.028.794.36.057.406-1.01.046-1.066M70.105 35.936c-1.679-.199-7.806-.744-9.485-.927-.36-.04-.395 1.028-.034 1.067 1.679.183 7.807.728 9.485.928.36.042.394-1.026.034-1.068M70.105 38.578c-1.679-.198-7.806-.744-9.485-.926-.36-.04-.395 1.027-.034 1.066 1.679.183 7.807.729 9.485.928.36.043.394-1.025.034-1.068" transform="translate(-558 -172) translate(384 172) translate(174)"/>
                    <path fill="#FFDEC1" d="M56.946 23.057c-.007-.008-.01-.015-.018-.022-.458-.369-1.01-.653-1.366-1.133-.247-.332-.741-.088-.712.234-.092.232-.145.471-.19.714-.233-.173-.451-.359-.624-.59-.247-.333-.742-.09-.712.233-.154.39-.21.8-.28 1.21-.35-.247-.707-.49-.962-.834-.247-.332-.742-.089-.712.234-.15.379-.207.778-.276 1.176-.34-.238-.683-.478-.93-.811-.247-.333-.742-.09-.713.234-.15.378-.208.777-.275 1.176-.34-.239-.684-.478-.93-.812-.248-.332-.743-.089-.713.234-.159.4-.214.824-.288 1.244-.36-.253-.73-.502-.993-.856-.248-.333-.742-.09-.713.233-.147.374-.205.767-.272 1.16-.335-.236-.67-.473-.915-.8-.246-.333-.742-.09-.712.232-.155.39-.21.801-.281 1.21-.35-.245-.706-.49-.961-.833-.247-.333-.742-.09-.712.234-.15.379-.208.778-.276 1.176-.34-.239-.683-.478-.931-.812-.247-.332-.742-.089-.712.234-.15.38-.208.778-.276 1.176-.34-.238-.683-.477-.93-.811-.247-.333-.742-.09-.712.233-.16.4-.214.824-.288 1.245-.36-.253-.73-.502-.993-.856-.248-.333-.742-.09-.713.233-.203.512-.24 1.06-.359 1.593-.013.04-.021.085-.028.131l-.01.047c-.012.042-.01.078-.008.116 0 .032-.01.059-.01.092.573 1.208 1.088 2.436 1.56 3.68.843 1.996 1.589 4.023 2.261 6.076 1.015 2.696 1.922 5.433 2.701 8.214.613 2.187 1.255 4.51 1.774 6.822.218.97.073 1.618.45 1.925.42.41.942.747 1.25 1.258.213.355.73.16.732-.164.16-.313.252-.647.343-.983l.191-.044c.268.232.528.474.711.778.214.355.73.16.732-.163.166-.325.26-.673.354-1.023l.176-.038c.279.241.552.49.742.807.214.353.73.16.732-.164.17-.332.263-.686.36-1.041l.118-.026c.285.245.564.498.758.82.214.355.73.16.731-.164.172-.333.265-.69.362-1.049l.11-.023c.287.247.57.5.765.826.213.353.73.16.73-.165.172-.333.266-.693.363-1.052l.183-.039c.287.249.572.503.768.829.213.354.73.16.73-.164.172-.335.267-.695.364-1.055l.083-.018c.29.25.574.503.77.83.213.355.73.16.73-.164.174-.336.268-.697.366-1.059l.134-.028c.29.25.577.506.774.834.214.354.73.16.732-.165.173-.34.268-.703.366-1.068l.088-.019c.293.253.582.51.782.84.213.355.73.16.73-.163.178-.345.273-.715.372-1.085l.069-.015c.297.256.593.517.796.853.213.356.73.16.731-.163.183-.356.277-.739.38-1.12l.104-.025c.31.266.619.533.83.882.213.355.729.16.73-.164.28-.545.353-1.154.567-1.724.031-.083.026-.154.009-.22v-.012c-.184-.832-1.143-4.141-1.387-4.852-2.425-7.059-4.853-14.116-7.283-21.173-.008-.052-.01-.103-.03-.158-.201-.532-.525-1.7-.82-2.19-.06-.1-.115-.158-.168-.196" transform="translate(-558 -172) translate(384 172) translate(174)"/>
                    <path fill="#FF9300" d="M41.255 34.445c4.432-1.238 4.89-1.404 9.316-2.664.949-.27.536-1.744-.413-1.474-4.427 1.26-4.885 1.427-9.317 2.663-.95.266-.537 1.74.414 1.475M42.677 38.777c4.447-1.178 4.907-1.338 9.35-2.538.951-.256.558-1.736-.394-1.479-4.442 1.2-4.902 1.36-9.35 2.538-.953.252-.56 1.731.394 1.479M44.1 43.108c4.462-1.116 4.924-1.271 9.381-2.41.955-.245.582-1.729-.374-1.485-4.456 1.14-4.918 1.294-9.38 2.412-.958.24-.584 1.724.373 1.483M45.522 47.44c4.477-1.056 4.942-1.205 9.413-2.284.96-.231.607-1.72-.353-1.489-4.472 1.08-4.937 1.227-9.414 2.284-.96.227-.606 1.716.354 1.49M46.944 51.773c4.493-.997 4.96-1.139 9.446-2.158.963-.219.63-1.714-.333-1.494-4.488 1.019-4.954 1.16-9.446 2.157-.963.214-.63 1.709.333 1.495M54.044 30.742c.684-.191.87-.238 1.373-.38.949-.27.536-1.745-.413-1.475-.622.177-.684.194-1.374.38-.953.258-.537 1.74.414 1.475M56.145 36.651c.687-.18.873-.223 1.378-.358.953-.255.563-1.735-.39-1.48-.625.167-.686.184-1.379.359-.956.242-.564 1.73.39 1.48M58.246 42.562c.689-.17.877-.21 1.383-.337.957-.24.59-1.727-.367-1.486-.626.157-.69.173-1.384.338-.96.227-.59 1.72.368 1.485M60.346 48.472c.692-.159.881-.197 1.39-.316.96-.225.617-1.717-.345-1.491-.629.148-.691.161-1.39.316-.962.213-.617 1.712.345 1.491" transform="translate(-558 -172) translate(384 172) translate(174)"/>
                    <path fill="#BBD9FD" d="M38.95 55.348c3.136-1.974 2.758-1.946 5.825-3.89.336-.158.67-.415.716-.88.066-.653-.402-1.35-.808-1.99-3.387-5.736-6.575-11.058-9.953-16.787-.019-.048-.037-.097-.064-.145-.157-.283-.305-.582-.506-.83-.257-.346-.546-.597-.851-.615-.142-.008-.263.029-.379.08-.02.006-.04.002-.057.014-.045.029-.086.052-.13.08-.063.035-.126.07-.19.1-.017.007-.023.028-.035.04-3.036 1.889-3.726 1.96-6.955 3.987-.157.11-.333.2-.433.386-.156.226-.212.537-.06.964.152.42.425.8.654 1.19.024.04.054.067.083.099 3.473 5.536 6.949 11.071 10.426 16.605.027.043.056.07.085.103l.001.003c.083.142.168.283.257.418.219.364.456.698.73.93.092.095.186.184.288.255.475.336.984.156 1.355-.117" transform="translate(-558 -172) translate(384 172) translate(174)"/>
                    <path fill="#3281EE" d="M33.973 38.3c-1.14-2.041-.337-.759-2.48-4.11-.367-.576-1.27-.039-.914.554 2.15 3.577 1.338 2.069 2.479 4.11.336.602 1.251.048.915-.553M38.461 41.493c-1.626-2.772-3.247-5.549-4.887-8.313-.351-.593-1.274-.05-.923.542 1.64 2.765 3.262 5.54 4.888 8.313.348.594 1.271.053.922-.542M38.192 51.433c-1.686-2.736-7.986-12.624-9.686-15.352-.364-.586-1.275-.024-.91.561 1.699 2.728 8 12.616 9.686 15.353.36.587 1.271.025.91-.562" transform="translate(-558 -172) translate(384 172) translate(174)"/>
                    <path fill="#FFDEC1" d="M89.766 37.034c-.004-.01-.003-.017-.008-.027-.286-.513-.69-.984-.839-1.562-.103-.401-.653-.362-.748-.052-.172.18-.311.382-.445.589-.15-.248-.282-.502-.355-.782-.103-.401-.653-.362-.747-.052-.29.303-.497.663-.716 1.015-.232-.36-.47-.72-.577-1.134-.103-.4-.654-.362-.747-.052-.283.295-.486.643-.699.986-.225-.348-.453-.7-.557-1.103-.103-.4-.653-.361-.747-.05-.283.293-.486.642-.698.985-.226-.35-.454-.7-.557-1.103-.103-.4-.654-.362-.748-.05-.298.31-.508.682-.735 1.043-.238-.37-.488-.74-.598-1.168-.104-.4-.654-.362-.748-.051-.277.29-.48.633-.689.97-.221-.343-.443-.689-.546-1.085-.103-.4-.653-.362-.747-.052-.29.303-.497.663-.716 1.015-.232-.36-.47-.72-.577-1.134-.104-.4-.653-.363-.747-.052-.282.295-.486.643-.699.986-.225-.349-.453-.7-.557-1.102-.103-.401-.654-.362-.748-.052-.282.295-.485.642-.698.986-.225-.35-.452-.7-.557-1.102-.103-.401-.653-.363-.747-.052-.298.311-.509.682-.735 1.045-.239-.371-.488-.741-.598-1.168-.104-.402-.653-.362-.748-.052-.38.397-.621.89-.932 1.34-.028.033-.053.071-.076.111l-.028.04c-.026.034-.037.069-.05.104-.013.028-.031.05-.044.082.076 1.335.09 2.666.057 3.996.03 2.166-.043 4.325-.194 6.48-.076 2.88-.267 5.756-.593 8.626-.257 2.257-.538 4.65-.928 6.988-.165.98-.542 1.525-.308 1.952.234.538.59 1.047.683 1.636.064.41.616.424.739.124.267-.23.478-.504.689-.781l.194.03c.16.316.31.639.365.99.064.409.616.423.74.124.276-.239.494-.526.713-.814l.177.03c.168.329.327.663.384 1.027.065.409.616.424.74.124.281-.242.502-.536.725-.829l.12.022c.17.333.334.673.393 1.044.064.409.615.423.738.124.285-.245.507-.54.73-.835l.11.019c.174.337.34.679.399 1.053.064.408.615.423.739.124.285-.246.508-.543.732-.84l.183.034c.173.338.341.681.4 1.056.064.41.615.424.74.124.284-.245.508-.544.733-.84l.084.014c.174.34.34.683.4 1.06.064.408.616.423.739.123.287-.246.51-.545.737-.843l.136.024c.174.34.343.685.402 1.063.065.409.616.423.739.123.29-.248.514-.55.742-.85l.09.015c.175.344.347.691.407 1.073.063.409.615.423.739.123.293-.252.52-.56.753-.865l.068.012c.18.35.356.702.417 1.09.063.41.615.424.739.124.302-.26.535-.58.774-.894l.105.017c.187.362.373.726.436 1.128.064.41.615.424.739.123.464-.398.761-.935 1.174-1.383.06-.064.083-.132.091-.2l.005-.011c.143-.84.502-4.267.543-5.017.415-7.452.825-14.904 1.234-22.356.011-.051.028-.1.03-.158.015-.568.156-1.772.067-2.338-.018-.115-.048-.189-.082-.245" transform="translate(-558 -172) translate(384 172) translate(174)"/>
                    <path fill="#FF9300" d="M70.94 41.674c4.571.523 5.058.541 9.633 1.041.98.108 1.154-1.413.173-1.521-4.575-.5-5.062-.518-9.634-1.04-.98-.113-1.153 1.408-.173 1.52M70.73 44.706c4.566.564 5.052.586 9.622 1.128.98.116 1.166-1.403.185-1.52-4.569-.54-5.056-.563-9.621-1.127-.98-.12-1.166 1.399-.187 1.52M70.52 47.739c4.56.605 5.046.63 9.61 1.214.978.124 1.179-1.393.2-1.518-4.564-.582-5.05-.609-9.61-1.214-.978-.129-1.179 1.388-.2 1.518M70.31 50.77c4.554.647 5.04.678 9.598 1.301.977.134 1.192-1.382.213-1.516-4.558-.623-5.044-.653-9.598-1.3-.977-.138-1.19 1.378-.213 1.516M70.1 53.803c4.548.687 5.035.722 9.587 1.387.975.142 1.203-1.372.227-1.514-4.553-.664-5.038-.7-9.587-1.386-.975-.147-1.203 1.366-.227 1.513M69.89 56.835c4.543.728 5.029.768 9.575 1.473.975.151 1.216-1.36.24-1.511-4.546-.705-5.032-.745-9.574-1.473-.975-.156-1.215 1.356-.241 1.511M69.68 59.868c4.537.769 5.023.813 9.563 1.559.974.16 1.229-1.35.254-1.51-4.54-.746-5.026-.79-9.563-1.559-.973-.164-1.227 1.346-.254 1.51M84.182 43.06c.706.08.896.108 1.415.165.98.107 1.154-1.413.172-1.52-.642-.071-.705-.078-1.415-.165-.98-.121-1.153 1.408-.172 1.52M83.9 49.326c.705.092.894.122 1.413.187.978.122 1.175-1.395.195-1.518-.64-.08-.704-.088-1.411-.187-.978-.135-1.175 1.39-.196 1.518M83.62 55.592c.702.103.892.136 1.409.209.976.138 1.197-1.377.219-1.515-.64-.09-.704-.1-1.41-.208-.974-.151-1.195 1.372-.219 1.514M83.338 61.859c.701.113.89.149 1.406.23.974.153 1.218-1.359.243-1.512-.638-.1-.701-.11-1.406-.23-.973-.166-1.218 1.353-.243 1.512" transform="translate(-558 -172) translate(384 172) translate(174)"/>
                    <path fill="#35CE68" d="M29.71 71.76c.678-.02 1.292-.265 1.83-.647.077-.022.152-.062.224-.13 4.011-3.828 8.903-6.866 12.597-11.035.253-.286.159-.661-.056-.868.209-.756 1.225-1.613 1.254-2.58.067-2.22-.834-4.609-1.462-6.699-.665-2.216-1.238-4.456-2.186-6.575-1.089-2.431-2.498-4.615-2.996-7.279-.054-.287-.265-.42-.49-.436-.16-.293-.532-.465-.832-.161-2.352 2.371-5.445 4.04-7.925 6.31-.112.057-.2.15-.25.284-.018.039-.027.076-.035.115-.002.012-.009.02-.01.03l-.005.047c-.001.02-.008.038-.006.058-.224 2.18-.607 4.346-.449 6.544.21 2.906 1.078 5.728 1.916 8.502.864 2.858 2.123 6.056 1.977 9.081-.042.869-.286 1.803-.745 2.547-.29.472-.793.891-1.369 1.17-.689.332-1.483.464-2.151.244" transform="translate(-558 -172) translate(384 172) translate(174)"/>
                    <path fill="#CBF7D8" d="M46.69 28.18C44.193 29.653 31.21 39.76 29.553 41.19c-.002.002-.008.017-.015.034-.211.218-.32.476-.388.776-.156.55-.049 1.103-.026 1.672l.002.01c.004.248.01.494.052.74.006.034.023.056.034.087.098.57 1.044.595 1.107-.069.002-.02.01-.036.013-.054.006-.01.013-.019.018-.03.164-.342.57-.504.98-.529 1.23.264 2.142 2.384 2.38 2.986.502 1.259.699 2.6.938 3.929.222 1.868.295 3.735.458 5.297.167 1.6.27 3.816.724 5.846.111 1.464.236 2.928.403 4.386.264.766.566 1.509.916 2.218 1.599 3.24 5.263 5.805 7.34 2.098 4.238-4.215 8.577-8.324 13.013-12.329.107-.008.215-.038.317-.13l1.525-1.343c.029-.026.04-.056.062-.083.206-.14.331-.39.191-.68l-2.596-5.334c-.091-.187-.24-.271-.397-.293-.039-.064-.095-.123-.17-.172-4.793-3.22-5.212-7.73-4.946-13.089.006-.12-.028-.216-.076-.3l.007-.767c.016-.046.037-.088.042-.144.211-2.445-.4-10.325-4.773-7.744" transform="translate(-558 -172) translate(384 172) translate(174)"/>
                    <path fill="#35CE68" d="M44.49 70.588c.901-.897 1.809-1.79 2.72-2.677 3.369-3.282 6.8-6.5 10.294-9.652.106-.007.214-.039.316-.13l1.525-1.343c.029-.026.04-.056.062-.083.206-.14.331-.391.19-.68l-2.595-5.334c-.09-.186-.24-.271-.396-.293-.04-.064-.096-.123-.17-.172-.6-.404-7.68 6.617-12.465 10.876-.577.513.206 4.286.519 9.488" transform="translate(-558 -172) translate(384 172) translate(174)"/>
                    <path fill="#C2F0D1" d="M64.832 54.964c-.061-.07-.128-.118-.198-.15-.136-.21-.382-.328-.659-.154-3.519 2.208-3.123-4.621-3.708-5.947-.44-.995-1.262-1.711-2.412-1.47-1.02.214-1.661 1.168-2.338 1.871-1.48 1.54-3 3.043-4.482 4.581-2.257 2.345-4.708 4.559-6.839 7.015-.077.09-.106.18-.116.267-.136.155.253.07.152.236-.123.204 2.026-.411 2.255-.495.229-.085.435-.103.62-.068.175.034.332.114.473.23.764.634 1.074 2.334 1.357 3.392.001.046-.004.089.011.14.589 2.028 1.623 6.03 3.91 7.193.421.215 2.943-.107 3.346-1.03 2.133-3.324 5.023-6.381 7.345-9.58 1.77-2.437 3.524-3.418 1.283-6.03" transform="translate(-558 -172) translate(384 172) translate(174)"/>
                    <path fill="#E1FFE8" d="M66.108 51.784c-1.22 2.746-4.013 5.263-6.026 7.432-1.773 1.912-3.644 3.757-5.283 5.788-.244.303-.084.616.184.76.017.032.024.065.049.095.404.504.403 1.22.506 1.83.098.589.303 1.21.116 1.801-.039.124-.027.233.003.331-.318.312-.644.614-.982.898-.555.466.188 1.314.745.846 2.673-2.246 4.705-5.365 6.997-7.98 1.63-1.857 3.601-3.629 5.055-5.685.555-.504 1.013-1.052 1.099-1.656.11-.108.169-.262.103-.467-.437-1.372-.97-2.725-1.526-4.055-.205-.488-.857-.35-1.04.062" transform="translate(-558 -172) translate(384 172) translate(174)"/>
                    <path fill="#E1FFE8" d="M54.883 65.922c.5 1.047.74 2.084.553 3.238-.285 1.765-2.028 2.343-3.248 1.03-1.404-1.513-2.046-3.698-2.608-5.637-.006-.038-.002-.076-.016-.116-.55-1.633-.248-3.422-2.043-4.327-1.087-.547-2.348-.186-3.207.622-3.04 2.857 2.039 7.65-1.733 10.412-.584.428.164 1.273.745.846 1.832-1.342 2.108-3.117 1.767-5.25-.247-1.545-1.318-4.13.124-5.312 2.251-1.846 2.767 1.42 3.213 3.09.002.047-.004.09.011.14.698 2.402 2.02 7.573 5.306 7.516 3.424-.06 3.177-4.594 2.15-6.745-.312-.654-1.326-.162-1.014.493" transform="translate(-558 -172) translate(384 172) translate(174)"/>
                    <path fill="#35CE68" d="M42.166 50.647c-1.39 1.054-1.332 1.071-2.737 2.108-.584.429.163 1.274.743.845 1.407-1.035 1.347-1.052 2.738-2.106.577-.438-.168-1.284-.744-.847M42.816 47.155c-1.291 1.19-2.76 2.263-4.102 3.405-.552.47.192 1.318.745.846 1.342-1.142 2.81-2.216 4.101-3.404.533-.491-.209-1.34-.744-.847M45.777 52.537c-1.86 1.616-2.491 2.004-5.488 4.935-.514.504.236 1.319.77.824 3.227-2.988 3.627-3.319 5.487-4.935.548-.475-.22-1.3-.769-.824M44.983 56.056c-1.86 1.616-.711.512-3.707 3.443-.514.502.235 1.318.768.823 3.228-2.987 1.847-1.826 3.708-3.442.547-.475-.22-1.3-.77-.824M41.515 42.278c-1.981 1.466-.748.455-3.965 3.142-.553.461.13 1.333.702.882 3.452-2.727 1.984-1.676 3.966-3.141.583-.43-.119-1.314-.703-.883M44.496 36.91c-2.68 2.07-5.365 4.137-8.035 6.22-.572.446.118 1.338.69.89 2.67-2.083 5.355-4.148 8.035-6.22.575-.444-.115-1.334-.69-.89M46.94 37.145c-.006-.013-.017-.09-.036-.23l-.08.053c-.053.037-.13.013-.229-.072-.1-.085-.165-.17-.197-.255-.037-.101.122-.298.48-.588.032-.483.136-.935.317-1.35.179-.418.422-.731.73-.94.099-.069.219-.063.36.016.14.079.236.19.288.332.025.068.03.15.016.244-.014.095-.043.156-.083.185-.013.007-.053-.017-.122-.074-.07-.057-.129-.069-.18-.034-.126.086-.244.228-.353.428-.109.2-.198.425-.268.675.363-.247.658-.425.885-.537.226-.112.36-.113.4-.005.034.095-.1.287-.405.575-.305.29-.579.523-.822.705-.101.086-.165.138-.192.156 0 .048.005.131.016.251.387-.33.746-.61 1.08-.837.333-.227.52-.286.56-.177.065.173-.397.716-1.385 1.629.14.168.317.18.533.033.271-.185.553-.47.846-.856.1-.129.171-.205.21-.232.04-.028.078-.031.113-.01.036.02.062.055.079.102.037.098.007.256-.088.478-.096.219-.232.445-.41.676-.176.23-.352.404-.525.523-.58.396-1.02.324-1.315-.214-.037.03-.1.075-.192.137-.047.032-.12.007-.22-.078-.1-.086-.166-.169-.195-.25-.018-.047.11-.2.383-.459M47.61 44.964c-.004-.013-.016-.09-.035-.23l-.079.054c-.054.036-.13.011-.23-.074-.1-.084-.165-.169-.196-.254-.038-.1.122-.297.48-.587.03-.484.137-.935.316-1.352.18-.416.423-.73.73-.94.1-.067.22-.062.36.016.14.08.236.19.29.333.024.068.03.15.015.244s-.043.156-.085.184c-.011.008-.052-.016-.12-.073-.07-.057-.13-.069-.18-.034-.126.086-.245.228-.353.428-.11.199-.199.424-.268.676.363-.247.658-.426.884-.538.226-.112.36-.114.4-.005.035.096-.1.287-.405.575-.305.288-.579.523-.822.705-.1.086-.165.138-.191.156 0 .047.004.13.015.25.387-.33.747-.61 1.08-.837.334-.226.52-.284.56-.176.064.172-.397.716-1.384 1.63.14.167.317.178.533.032.27-.185.553-.47.846-.856.1-.128.17-.205.21-.232.04-.027.077-.031.112-.01.036.02.063.055.08.101.037.1.007.258-.089.478-.096.22-.232.445-.409.676-.177.23-.352.405-.526.523-.581.396-1.019.325-1.314-.213-.037.03-.101.076-.192.137-.047.033-.121.006-.221-.078-.1-.085-.165-.169-.195-.25-.018-.047.11-.2.384-.459M49.31 51.03c-.006-.014-.017-.09-.036-.23l-.08.054c-.053.036-.129.012-.23-.074-.1-.084-.164-.169-.196-.253-.037-.102.123-.298.48-.589.032-.483.137-.934.316-1.35.18-.418.423-.732.73-.94.1-.068.22-.063.36.015.14.08.237.191.29.333.025.068.03.15.015.243-.015.096-.043.157-.084.185-.012.008-.052-.016-.12-.073-.07-.057-.13-.068-.18-.035-.127.088-.244.23-.353.43-.11.199-.199.424-.268.675.363-.247.657-.427.883-.538.227-.111.36-.113.4-.005.035.096-.1.287-.404.575-.305.288-.58.523-.822.705-.101.087-.165.138-.192.156 0 .047.005.13.016.25.387-.33.748-.608 1.08-.836.333-.227.52-.285.56-.177.065.172-.397.716-1.384 1.63.14.167.317.178.532.031.272-.184.554-.469.846-.855.1-.128.171-.206.21-.233.04-.027.078-.03.113-.01.035.02.062.055.08.103.036.098.007.257-.089.477-.096.22-.233.445-.41.676-.175.23-.35.406-.525.524-.581.395-1.019.324-1.315-.214-.036.03-.1.075-.192.138-.047.032-.121.006-.22-.08-.1-.084-.165-.168-.195-.249-.018-.047.11-.2.384-.459" transform="translate(-558 -172) translate(384 172) translate(174)"/>
                    <path fill="#BBD9FD" d="M85.52 54.335c.192-3.7-.003-3.375.174-7.001.064-.366.047-.786-.307-1.093-.496-.43-1.335-.449-2.093-.485-6.64-.536-12.829-.995-19.459-1.534-.05-.013-.1-.026-.155-.032-.323-.035-.653-.085-.97-.064-.432.01-.803.103-.994.341-.089.111-.128.232-.153.356-.006.02-.02.033-.021.054l-.009.153c-.008.072-.016.143-.03.213-.002.018.011.034.015.052-.205 3.569-.544 4.173-.747 7.98 0 .191-.027.387.067.576.096.258.318.482.755.603.431.12.899.115 1.348.151.046.004.087-.004.129-.01 6.528.35 13.056.697 19.583 1.043.051.003.09-.005.133-.01h.004c.164.014.328.026.49.032.424.03.833.028 1.18-.061.131-.02.258-.046.376-.088.547-.196.694-.714.684-1.176" transform="translate(-558 -172) translate(384 172) translate(174)"/>
                    <path fill="#3281EE" d="M68.713 48.584c-2.326-.244-.815-.162-4.79-.342-.681-.03-.762 1.017-.073 1.067 4.164.303 2.463.098 4.79.342.685.071.759-.995.073-1.067M73.91 46.755c-3.205-.268-6.408-.542-9.614-.795-.686-.053-.775 1.013-.087 1.067 3.205.252 6.408.525 9.612.793.687.058.776-1.008.088-1.065M81.883 52.7c-3.21-.2-14.924-.745-18.134-.927-.687-.04-.753 1.027-.065 1.067 3.21.183 14.925.728 18.134.927.688.043.753-1.025.065-1.067M53.957 67.165c3.482-1.27 3.106-1.322 6.514-2.577.362-.084.742-.264.886-.71.201-.624-.11-1.403-.372-2.115-2.103-6.32-4.099-12.194-6.194-18.505-.008-.051-.016-.103-.032-.155-.094-.311-.176-.634-.32-.918-.178-.394-.408-.699-.702-.781-.137-.038-.264-.028-.387 0-.02 0-.039-.008-.059 0l-.143.051c-.07.02-.139.041-.209.058-.017.002-.026.022-.041.032-3.366 1.206-4.055 1.13-7.64 2.433-.176.074-.366.125-.504.286-.2.189-.32.48-.26.93.059.443.246.872.388 1.3.014.044.038.078.06.115 2.229 6.143 4.461 12.285 6.695 18.427.017.048.04.081.06.12l.001.002c.051.156.105.312.164.464.137.401.299.777.517 1.062.07.112.144.219.228.31.394.428.928.36 1.35.17" transform="translate(-558 -172) translate(384 172) translate(174)"/>
                    <path fill="#3281EE" d="M52.682 49.452c-.685-2.237-.17-.814-1.557-4.542-.238-.639-1.235-.304-1.012.35 1.349 3.95.873 2.305 1.558 4.541.202.658 1.213.31 1.011-.35M56.397 53.518c-1.005-3.053-2.005-6.108-3.026-9.155-.219-.654-1.235-.32-1.016.335 1.02 3.048 2.021 6.102 3.027 9.155.215.655 1.231.32 1.015-.335M54.04 63.178c-1.07-3.03-5.148-14.022-6.234-17.047-.233-.649-1.241-.292-1.008.357 1.086 3.025 5.163 14.017 6.234 17.048.23.65 1.238.292 1.009-.358" transform="translate(-558 -172) translate(384 172) translate(174)"/>
                    <path fill="#FF8E8E" d="M62.666 65.656c3.384 1.511 3.15 1.213 6.471 2.683.319.191.717.326 1.13.107.58-.308.9-1.084 1.207-1.778 2.89-6 5.547-11.606 8.438-17.596.03-.043.06-.085.085-.133.148-.29.315-.578.41-.883.144-.406.193-.786.038-1.049-.071-.122-.17-.203-.277-.27-.015-.013-.023-.031-.043-.04l-.139-.063c-.064-.033-.128-.067-.189-.104-.014-.01-.035-.002-.053-.005-3.256-1.476-3.698-2.01-7.178-3.57-.179-.07-.35-.165-.562-.145-.274-.004-.564.122-.834.487-.267.359-.43.797-.627 1.203-.02.041-.026.082-.037.123-2.676 5.963-5.351 11.926-8.023 17.89-.021.047-.028.086-.04.128v.002c-.073.148-.143.297-.206.447-.182.384-.327.767-.368 1.122-.029.13-.05.258-.053.382-.015.582.416.904.85 1.062" transform="translate(-558 -172) translate(384 172) translate(174)"/>
                    <path fill="#F52D2D" d="M74.085 52.051c1.065-2.081.444-.701 2.043-4.344.274-.625-.674-1.078-.97-.453-1.781 3.775-.978 2.262-2.043 4.345-.313.612.656 1.066.97.452" transform="translate(-558 -172) translate(384 172) translate(174)"/>
                    <path fill="#FF8E8E" d="M73.921 57.556c1.403-2.892 2.812-5.78 4.201-8.68.299-.62-.664-1.087-.963-.465-1.389 2.898-2.797 5.787-4.201 8.679-.301.62.662 1.086.963.466" transform="translate(-558 -172) translate(384 172) translate(174)"/>
                    <path fill="#F52D2D" d="M65.502 62.852c1.34-2.92 6.067-13.65 7.394-16.579.284-.627-.688-1.072-.973-.444-1.326 2.928-6.053 13.656-7.394 16.578-.287.626.685 1.072.973.445" transform="translate(-558 -172) translate(384 172) translate(174)"/>
                    <path fill="#B7F6F7" d="M72.143 58.922c-.406-2.523-.647-5.036-.875-7.594-.204-1.905-.344-3.804-.421-5.698-.077-1.17-.149-2.357-.106-3.53-.07-.182-.198-.334-.365-.435-.12-.076-.258-.117-.4-.119l-.055-.016-.166.03-.237.028c-3.852.723-13.236 1.63-17.345 2.414-.217.03-.424.11-.603.236-.314.231-.505.593-.52.982-.018.505.004 1.01.064 1.512.01.047.021.094.038.14.68 7.264 1.39 14.505 2.13 21.722-.016.054.021.095.026.146.015.182.03.365.054.55.018.433.108.86.266 1.265.035.135.086.266.151.39.296.458.882.632 1.38.411 4-.788 13.032-2.966 16.93-3.744.466.001.895-.249 1.124-.654.181-.352.27-.743.26-1.139-.576-2.271-1.02-4.574-1.33-6.897" transform="translate(-558 -172) translate(384 172) translate(174)"/>
                    <path fill="#2BD1D4" d="M62.056 52.652c-2.043.49-4.173.736-6.278 1.168-.365.077-.597.436-.52.8.078.363.435.596.8.519 2.086-.368 4.255-.713 6.279-1.168.85-.202.573-1.53-.28-1.319M61.589 50.003c-2.007.279-3.993.678-5.951 1.196-.366.074-.603.43-.528.796.073.367.43.603.796.53 5.18-1.03 3.038-.708 5.95-1.197.863-.139.586-1.437-.267-1.325M67.244 46.278c-4 .788-7.986 1.49-11.978 2.25-.36.112-.562.495-.45.854.094.306.388.504.706.478 3.991-.79 7.98-1.502 11.97-2.253.367-.068.608-.422.54-.788-.068-.367-.421-.61-.788-.54" transform="translate(-558 -172) translate(384 172) translate(174)"/>
                    <g transform="translate(-558 -172) translate(384 172) translate(174) translate(23.834 54.519)">
                        <mask id="stijrcaexf" fill="#fff">
                            <use xlink:href="#h5en4inzse"/>
                        </mask>
                        <path fill="#FFCB78" d="M.621.572C15.694.24 30.766.125 45.84.23c.264 12.927.213 25.855-.152 38.782-13.682.132-27.365.008-41.048-.372-1.946-.055-3.678-1.695-3.833-3.655C-.084 23.514-.146 12.043.62.572" mask="url(#stijrcaexf)"/>
                    </g>
                    <path fill="#FFB15C" d="M64.973 54.722c9.476.037 18.952.16 28.428.37.768 11.47.707 22.94-.184 34.41-.155 1.96-1.887 3.6-3.833 3.656-8.166.227-16.331.362-24.497.407.205-12.948.234-25.895.086-38.843" transform="translate(-558 -172) translate(384 172) translate(174)"/>
                    <path fill="#ED994C" d="M24.44 55.313c-1.144-1.342-2.268-2.676-3.367-4-.44-.53-.31-1.367.286-1.874.265-.226.592-.356.917-.367 10.98-.367 21.96-.569 32.939-.606 1.75-.006 3.434.663 4.743 1.874 1.656 1.534 3.33 3.072 5.017 4.61-13.511-.052-27.023.07-40.534.363M93.416 55.313c1.145-1.342 2.27-2.676 3.368-4 .44-.53.31-1.367-.286-1.874-.265-.226-.591-.356-.917-.367-7.007-.234-14.014-.401-21.022-.5-1.75-.026-3.412.622-4.685 1.817-1.612 1.514-3.247 3.035-4.899 4.56 9.48.037 18.96.158 28.441.364" transform="translate(-558 -172) translate(384 172) translate(174)"/>
                    <path fill="#32363F" d="M137.935 64.896c7.74 0 14.014 6.274 14.014 14.014 0 7.74-6.274 14.014-14.014 14.014-7.74 0-14.013-6.275-14.013-14.014 0-7.74 6.274-14.014 14.013-14.014" transform="translate(-558 -172) translate(384 172) translate(174)"/>
                    <path fill="#32363F" d="M137.931 64.883H143.007V92.911H137.931z" transform="translate(-558 -172) translate(384 172) translate(174)"/>
                    <path fill="#6B6B6B" d="M142.35 64.896c7.739 0 14.013 6.274 14.013 14.014 0 7.74-6.274 14.014-14.014 14.014-7.74 0-14.014-6.275-14.014-14.014 0-7.74 6.275-14.014 14.014-14.014" transform="translate(-558 -172) translate(384 172) translate(174)"/>
                    <path fill="#BBD9FD" d="M142.35 71.958c-3.84 0-6.952 3.113-6.952 6.952s3.112 6.952 6.951 6.952c3.84 0 6.952-3.113 6.952-6.952 0-3.84-3.113-6.952-6.952-6.952" transform="translate(-558 -172) translate(384 172) translate(174)"/>
                    <g>
                        <path fill="#FFB15C" d="M31.25 15.165c-.143-1.696-.923-3.26-2.107-4.533-1.289-1.384-3.146-2.5-5.122-2.692-.385-3.217-2.71-6.03-6.069-6.925C17.307.843 16.655.751 16.01.73V.727h-.02V.73c-.645.022-1.297.114-1.942.286C10.69 1.91 8.365 4.723 7.98 7.94c-1.976.193-3.834 1.308-5.121 2.692C1.673 11.905.893 13.47.749 15.165c-.05.586-.014 1.177.097 1.755.116.8.479 1.96.998 2.848C3.207 22.1 5.53 23.066 8.408 23.56c1.588.274 3.096.438 7.443.438l.14.001h.159c4.346 0 5.854-.165 7.442-.439 2.877-.495 5.202-1.46 6.564-3.793.52-.887.882-2.048.998-2.848.112-.578.146-1.17.097-1.755" transform="translate(-558 -172) translate(384 172) translate(174) translate(28.5 62)"/>
                        <g transform="translate(-558 -172) translate(384 172) translate(174) translate(28.5 62) translate(1)"/>
                        <path fill="#FFCB78" d="M21.53 15.563c-.32-.23-.698-.69-.685-.917.014-.235-.09-.44-.283-.564-.207-.13-.487-.143-.716-.032-.22.107-.36.315-.374.557-.02.332.084.616.233.87-2.243 1.143-5.225 1.098-7.343-.126.136-.274.208-.59.16-.948-.053-.411-.45-.62-.789-.58-.354.043-.58.323-.534.665.051.395-.29.674-.742.998-.198.143-.299.37-.27.606.028.239.185.451.399.54.075.032.154.048.232.048.13 0 .26-.043.375-.126.11-.079.24-.172.374-.28 1.338.786 2.96 1.18 4.584 1.18 1.515 0 3.032-.343 4.32-1.033.093.086.192.17.303.249.121.086.256.129.388.129.192 0 .378-.09.51-.261.212-.278.217-.72-.141-.975" transform="translate(-558 -172) translate(384 172) translate(174) translate(28.5 62)"/>
                    </g>
                </g>
            </g>
        </g>
    </g>
</svg>
